<svg xmlns="http://www.w3.org/2000/svg" width="93.333" height="87.266" viewBox="0 0 93.333 87.266">
  <g>
    <rect width="93.333" height="87.266" fill="none"/>
    <g>
      <path d="M73.317,18.219c2.31-2.3,6.2.264,4.854,3.23l-.032.068c-1.07,2.238-3.275,1.184-4.345,3.422s1.134,3.292.063,5.529-3.274,1.184-4.345,3.421,1.134,3.292.064,5.529-3.133,1.339-4.2,3.576L61.41,40.916S65.174,26.316,73.317,18.219Z"/>
      <path d="M59.781,45.158,47.464,70.907h0a8.071,8.071,0,0,0,10.764-3.8l8.834-18.468h0a4.356,4.356,0,0,1-2.05-5.81l.094-.2-3.351-1.6Z" fill="none" stroke="#000" stroke-linejoin="round" stroke-width="1.133"/>
      <circle cx="66.808" cy="38.134" r="1.181" fill="#fff"/>
      <circle cx="71.113" cy="29.265" r="1.181" fill="#fff"/>
    </g>
    <g>
      <path d="M30.173,35.815l-.021-.008L23.189,57.641l-5.12,10.866c-1.429,2.59-.839,5.618,2,6.447s4.966-1.406,5.156-4.358l1.53-11.914,5.88-22.15-.022,0Z"/>
      <path d="M30.152,35.807l2.483.725c2.3.654,4.925-1.424,5.933-4.875L42.4,16.118a.347.347,0,0,0-.617-.283L36.757,25.884l1.462-11.618a.347.347,0,0,0-.631-.193L32.407,24.614l1.212-11.148a.347.347,0,0,0-.671-.1L27.773,28.505C26.711,32.144,27.859,35.121,30.152,35.807Z" fill="none" stroke="#000" stroke-linejoin="round" stroke-width="1.133"/>
      <circle cx="21.85" cy="71.732" r="1.149" fill="#fff"/>
    </g>
  </g>
</svg>
